<?xml version="1.0" encoding="utf-8"?>
<!-- Generator: Adobe Illustrator 24.0.0, SVG Export Plug-In . SVG Version: 6.00 Build 0)  -->
<svg version="1.1" id="Layer_1" xmlns="http://www.w3.org/2000/svg" xmlns:xlink="http://www.w3.org/1999/xlink" x="0px" y="0px"
	 viewBox="0 0 314 98" style="enable-background:new 0 0 314 98;" xml:space="preserve">
<style type="text/css">
	.st0{fill:#157AFF;}
	.st1{fill:#FFFFFF;}
</style>
<title>ICON WEB</title>
<path class="st0" d="M308.4,49.5c0,21-17,38.1-38.1,38.1c0,0,0,0,0,0H65.2C86.2,77,94.6,51.3,84,30.2c-4.1-8.1-10.7-14.7-18.9-18.9
	h205.1C291.3,11.4,308.4,28.4,308.4,49.5C308.4,49.5,308.4,49.5,308.4,49.5z"/>
<circle class="st0" cx="43.9" cy="49.5" r="38.4"/>
<path class="st1" d="M109.3,46c-0.1-0.9-0.6-1.7-1.3-2.2c-0.7-0.5-1.6-0.8-2.5-0.7c-1.4-0.1-2.7,0.5-3.5,1.6
	c-0.8,1.1-1.2,2.5-1.2,3.9c-0.1,1.5,0.3,2.9,1.2,4.1c0.8,1.1,2.1,1.7,3.5,1.6c1,0.1,2-0.3,2.8-1.1c0.7-0.8,1.1-1.8,1.2-2.8h1.8
	c-0.1,1.5-0.7,2.9-1.8,4c-1.1,1-2.6,1.5-4.1,1.4c-1.8,0.1-3.5-0.6-4.7-2c-1.1-1.5-1.7-3.3-1.6-5.1c-0.1-1.9,0.5-3.7,1.7-5.1
	c1.2-1.4,2.9-2.1,4.7-2c1.3,0,2.7,0.4,3.8,1.2c1.1,0.8,1.7,2,1.9,3.3H109.3z"/>
<path class="st1" d="M113.4,41.9h1.8v5.8h7.1v-5.8h1.8v13.6h-1.8v-6.2h-7.1v6.2h-1.8L113.4,41.9z"/>
<path class="st1" d="M130.9,41.9h2l5.3,13.6h-2l-1.5-4.1h-5.7l-1.5,4.1h-1.8L130.9,41.9z M129.5,49.9h4.6l-2.3-6.3l0,0L129.5,49.9z"
	/>
<path class="st1" d="M140.8,43.4h-4.5v-1.5h10.9v1.5h-4.5v12h-1.8V43.4z"/>
<path class="st1" d="M159.3,55.4h-2l-4.8-13.6h1.9l3.9,11.8l0,0l3.9-11.8h1.9L159.3,55.4z"/>
<path class="st1" d="M178.1,48.4c0.1,1.8-0.5,3.6-1.5,5.1c-2.5,2.9-6.8,3.2-9.7,0.7c-0.1-0.1-0.3-0.3-0.4-0.4
	c-1.1-1.5-1.7-3.2-1.6-5.1c0-1.7,0.4-3.3,1.4-4.7c1.2-1.7,3.2-2.6,5.2-2.5c1.9-0.1,3.8,0.6,5.1,2c0.2,0,0.4,0,0.6,0
	c0.3,0,0.5-0.1,0.8-0.2l0.1-0.1l0.1-0.1l-0.4-0.9l1.9-0.8l0.8,1.8l-1.7,0.7c-0.5,0.2-1,0.3-1.5,0.4C177.8,45.7,178.1,47,178.1,48.4z
	 M176.2,48.4c0.1-1.4-0.4-2.8-1.3-3.9c-0.9-1-2.1-1.5-3.4-1.5c-1.3-0.1-2.6,0.5-3.5,1.5c-1,1.2-1.4,2.7-1.3,4.3
	c0,1.4,0.4,2.7,1.1,3.8c0.9,1.1,2.3,1.7,3.7,1.5c1.4,0.1,2.8-0.6,3.5-1.8C175.8,51.2,176.2,49.8,176.2,48.4L176.2,48.4z M172,37.9
	h2.1l-2.5,2.7h-1.3L172,37.9z"/>
<path class="st1" d="M182.5,41.9h1.8v13.6h-1.8V41.9z"/>
<path class="st1" d="M202.2,46c-0.1-0.9-0.6-1.6-1.3-2.2c-0.7-0.5-1.6-0.8-2.5-0.7c-1.3-0.1-2.6,0.5-3.4,1.6
	c-0.8,1.1-1.2,2.5-1.1,3.9c-0.1,1.5,0.3,2.9,1.1,4.1c0.8,1.1,2.1,1.7,3.5,1.6c1,0.1,2-0.3,2.8-1.1c0.7-0.8,1.1-1.8,1.1-2.8h1.8
	c-0.1,1.5-0.7,2.9-1.8,4c-1.1,1-2.6,1.5-4.1,1.4c-1.8,0.1-3.5-0.6-4.6-2c-1.1-1.5-1.7-3.3-1.6-5.1c-0.1-1.9,0.5-3.7,1.7-5.1
	c1.2-1.4,2.9-2.1,4.7-2c1.3,0,2.7,0.4,3.8,1.2c1,0.8,1.7,2,1.8,3.3H202.2z"/>
<path class="st1" d="M206.3,41.9h1.8v5.8h7.1v-5.8h1.8v13.6h-1.8v-6.2h-7.1v6.2h-1.8V41.9z"/>
<path class="st1" d="M230.9,50.5c0.1,1.4-0.4,2.8-1.4,3.9c-1.1,1-2.5,1.4-4,1.3c-3.7,0-5.6-1.7-5.6-5.2v-8.7h1.8v8.7
	c-0.1,1,0.3,2,1,2.8c0.8,0.7,1.8,1,2.8,0.9c1,0.1,1.9-0.3,2.6-0.9c0.7-0.8,1-1.8,0.9-2.8v-8.7h1.8L230.9,50.5z M225.9,38.2h2.1
	l-2.5,2.7h-1.2L225.9,38.2z"/>
<path class="st1" d="M233.8,41.9h1.9l7.1,11l0,0v-11h1.7v13.6h-2l-7.1-10.9l0,0v10.9h-1.7L233.8,41.9z"/>
<path class="st1" d="M257.6,53.8c-0.5,0.7-1.2,1.2-1.9,1.5c-0.8,0.3-1.6,0.5-2.4,0.5c-1.2,0-2.4-0.3-3.5-1c-1-0.6-1.7-1.5-2.3-2.5
	c-0.5-1-0.8-2.2-0.8-3.3c-0.1-1.9,0.5-3.7,1.7-5.3c1.2-1.4,2.9-2.2,4.8-2.1c1.4,0,2.8,0.3,3.9,1.1c1.1,0.8,1.8,2,1.9,3.4h-1.8
	c-0.1-0.9-0.6-1.7-1.3-2.2c-0.8-0.5-1.7-0.8-2.7-0.8c-1.4-0.1-2.7,0.6-3.5,1.7c-0.8,1.2-1.2,2.6-1.2,4.1c0,1.4,0.4,2.7,1.2,3.8
	c0.8,1,2.1,1.6,3.4,1.6c1.2,0.1,2.4-0.4,3.2-1.2c0.8-0.9,1.2-2,1.1-3.2h-4.3v-1.5h5.9v7.2h-1.1L257.6,53.8z"/>
<path class="st1" d="M270.3,43.4h-4.5v-1.5h10.9v1.5h-4.5v12h-1.8L270.3,43.4z"/>
<path class="st1" d="M277.4,48.7c0-1.2,0.2-2.4,0.7-3.5c0.5-1.1,1.2-2,2.2-2.6c2.2-1.4,5-1.4,7.2,0c1,0.6,1.7,1.5,2.2,2.6
	c0.5,1.1,0.7,2.3,0.7,3.5c0,0.9-0.1,1.8-0.4,2.7c-0.3,0.8-0.7,1.6-1.2,2.3c-0.6,0.7-1.3,1.2-2,1.6c-0.9,0.4-1.9,0.6-2.8,0.6
	c-1,0-1.9-0.2-2.8-0.6c-0.8-0.4-1.5-0.9-2-1.6c-0.5-0.7-0.9-1.4-1.2-2.3C277.5,50.5,277.4,49.6,277.4,48.7z M279.6,46
	c-0.3,0.9-0.5,1.8-0.5,2.7c0,0.9,0.2,1.8,0.5,2.7c0.3,0.8,0.9,1.5,1.5,2.1c1.6,1.1,3.7,1.1,5.3,0c0.7-0.5,1.2-1.2,1.6-2.1
	c0.3-0.9,0.5-1.8,0.5-2.7c0-0.9-0.2-1.8-0.5-2.7c-0.3-0.8-0.9-1.5-1.6-2.1c-1.6-1.1-3.7-1.1-5.3,0C280.5,44.5,279.9,45.2,279.6,46z
	 M282.9,38.2h1.8l2,2.7h-1.6l-1.3-1.8l-1.3,1.8H281L282.9,38.2z"/>
<path class="st1" d="M292.6,41.9h1.8v13.6h-1.8V41.9z"/>
<path class="st1" d="M27.5,67.3V77l9.1-5.2c2.6,0.8,5.3,1.1,8,1.1c14.9,0,27-11.3,27-25.2s-12.1-25.2-27-25.2s-27,11.3-27,25.2
	C17.6,55.5,21.3,62.7,27.5,67.3z"/>
<path class="st0" d="M41.7,40.9L27.1,56.3L40.4,49l6.9,7.3l14.5-15.4L48.7,48L41.7,40.9z"/>
</svg>
